<svg width="60" height="60" viewBox="0 0 60 60" fill="none" xmlns="http://www.w3.org/2000/svg">
<path d="M7.80001 18.6C8.46275 18.6 9.00001 18.0628 9.00001 17.4C9.00001 16.7373 8.46275 16.2 7.80001 16.2C7.13726 16.2 6.60001 16.7373 6.60001 17.4C6.60001 18.0628 7.13726 18.6 7.80001 18.6Z" fill="black"/>
<path d="M46.2 8.40001C46.5314 8.40001 46.8 8.13138 46.8 7.80001C46.8 7.46864 46.5314 7.20001 46.2 7.20001C45.8686 7.20001 45.6 7.46864 45.6 7.80001C45.6 8.13138 45.8686 8.40001 46.2 8.40001Z" fill="#101010"/>
<path d="M30 52.2C42.2607 52.2 52.2 42.2607 52.2 30C52.2 17.7393 42.2607 7.80002 30 7.80002C17.7393 7.80002 7.80002 17.7393 7.80002 30C7.80002 42.2607 17.7393 52.2 30 52.2Z" fill="black"/>
<path d="M49.8 11.4C51.1255 11.4 52.2 10.3255 52.2 9.00001C52.2 7.67452 51.1255 6.60001 49.8 6.60001C48.4745 6.60001 47.4 7.67452 47.4 9.00001C47.4 10.3255 48.4745 11.4 49.8 11.4Z" fill="#101010"/>
<path d="M52.2 15.6C52.8627 15.6 53.4 15.0628 53.4 14.4C53.4 13.7373 52.8627 13.2 52.2 13.2C51.5373 13.2 51 13.7373 51 14.4C51 15.0628 51.5373 15.6 52.2 15.6Z" fill="black"/>
<path d="M48.6 46.8C49.2627 46.8 49.8 46.2628 49.8 45.6C49.8 44.9373 49.2627 44.4 48.6 44.4C47.9373 44.4 47.4 44.9373 47.4 45.6C47.4 46.2628 47.9373 46.8 48.6 46.8Z" fill="#171717"/>
<path d="M9.00001 40.2C10.3255 40.2 11.4 39.1255 11.4 37.8C11.4 36.4745 10.3255 35.4 9.00001 35.4C7.67452 35.4 6.60001 36.4745 6.60001 37.8C6.60001 39.1255 7.67452 40.2 9.00001 40.2Z" fill="#171717"/>
<path d="M15 53.4C15.6628 53.4 16.2 52.8627 16.2 52.2C16.2 51.5373 15.6628 51 15 51C14.3373 51 13.8 51.5373 13.8 52.2C13.8 52.8627 14.3373 53.4 15 53.4Z" fill="black"/>
<path d="M11.1 33.6C11.9284 33.6 12.6 32.9284 12.6 32.1C12.6 31.2716 11.9284 30.6 11.1 30.6C10.2716 30.6 9.60001 31.2716 9.60001 32.1C9.60001 32.9284 10.2716 33.6 11.1 33.6Z" fill="white"/>
<path d="M12.6 40.8C12.9314 40.8 13.2 40.5314 13.2 40.2C13.2 39.8686 12.9314 39.6 12.6 39.6C12.2686 39.6 12 39.8686 12 40.2C12 40.5314 12.2686 40.8 12.6 40.8Z" fill="#101010"/>
<path d="M48 21C48.3314 21 48.6 20.7314 48.6 20.4C48.6 20.0686 48.3314 19.8 48 19.8C47.6686 19.8 47.4 20.0686 47.4 20.4C47.4 20.7314 47.6686 21 48 21Z" fill="white"/>
<path d="M16.803 39.0006L16.8006 21.0006C16.8006 18.681 18.681 16.8 21.0006 16.8H39C41.3196 16.8 43.2 18.6804 43.2 21V39C43.2 41.3196 41.3196 43.2 39 43.2H21.003C18.6834 43.2 16.803 41.3202 16.803 39.0006Z" fill="black"/>
<path d="M39 17.04C41.1834 17.04 42.96 18.8166 42.96 21V39C42.96 41.1834 41.1834 42.96 39 42.96H21C18.8166 42.96 17.04 41.1834 17.04 39V21C17.04 18.8166 18.8166 17.04 21 17.04H39ZM39 16.2H21C18.3492 16.2 16.2 18.3492 16.2 21V39C16.2 41.6508 18.3492 43.8 21 43.8H39C41.6508 43.8 43.8 41.6508 43.8 39V21C43.8 18.3492 41.6508 16.2 39 16.2Z" fill="black"/>
<path d="M36.9 36H23.1C21.942 36 21 35.058 21 33.9V26.1C21 24.942 21.942 24 23.1 24H36.9C38.058 24 39 24.942 39 26.1V33.9C39 35.058 38.058 36 36.9 36ZM23.1 24.6C22.2732 24.6 21.6 25.2732 21.6 26.1V33.9C21.6 34.7268 22.2732 35.4 23.1 35.4H36.9C37.7268 35.4 38.4 34.7268 38.4 33.9V26.1C38.4 25.2732 37.7268 24.6 36.9 24.6H23.1Z" fill="black"/>
<path d="M30 32.379C29.3544 32.379 28.7094 32.1336 28.218 31.6422L21.6876 25.1124C21.5706 24.9954 21.5706 24.8052 21.6876 24.6882C21.8046 24.5712 21.9948 24.5712 22.1118 24.6882L28.6422 31.218C29.391 31.9662 30.6084 31.9662 31.3572 31.218L37.8876 24.6876C38.0046 24.5706 38.1948 24.5706 38.3118 24.6876C38.4288 24.8046 38.4288 24.9948 38.3118 25.1118L31.782 31.6422C31.2906 32.1336 30.6456 32.379 30 32.379Z" fill="black"/>
<path d="M21.9 35.4C21.8232 35.4 21.7464 35.3706 21.6876 35.3124C21.5706 35.1954 21.5706 35.0052 21.6876 34.8882L26.7876 29.7882C26.9046 29.6712 27.0948 29.6712 27.2118 29.7882C27.3288 29.9052 27.3288 30.0954 27.2118 30.2124L22.1118 35.3124C22.0536 35.3706 21.9768 35.4 21.9 35.4Z" fill="black"/>
<path d="M38.1 35.4C38.0232 35.4 37.9464 35.3706 37.8876 35.3124L32.7876 30.2124C32.6706 30.0954 32.6706 29.9052 32.7876 29.7882C32.9046 29.6712 33.0948 29.6712 33.2118 29.7882L38.3118 34.8882C38.4288 35.0052 38.4288 35.1954 38.3118 35.3124C38.2536 35.3706 38.1768 35.4 38.1 35.4Z" fill="black"/>
<path d="M41.7 25.2C41.5344 25.2 41.4 25.0656 41.4 24.9V21.3C41.4 19.8114 40.1886 18.6 38.7 18.6H30.9C30.7344 18.6 30.6 18.4656 30.6 18.3C30.6 18.1344 30.7344 18 30.9 18H38.7C40.5198 18 42 19.4802 42 21.3V24.9C42 25.0656 41.8656 25.2 41.7 25.2Z" fill="black"/>
<path d="M29.1 18.6H27.3C27.1344 18.6 27 18.4656 27 18.3C27 18.1344 27.1344 18 27.3 18H29.1C29.2656 18 29.4 18.1344 29.4 18.3C29.4 18.4656 29.2656 18.6 29.1 18.6Z" fill="black"/>
<path d="M38.7 42H21.3C19.4802 42 18 40.5198 18 38.7V21.3C18 19.4802 19.4802 18 21.3 18H25.5C25.6656 18 25.8 18.1344 25.8 18.3C25.8 18.4656 25.6656 18.6 25.5 18.6H21.3C19.8114 18.6 18.6 19.8114 18.6 21.3V38.7C18.6 40.1886 19.8114 41.4 21.3 41.4H38.7C40.1886 41.4 41.4 40.1886 41.4 38.7V36.3C41.4 36.1344 41.5344 36 41.7 36C41.8656 36 42 36.1344 42 36.3V38.7C42 40.5198 40.5198 42 38.7 42Z" fill="black"/>
<path d="M41.7 34.8C41.5344 34.8 41.4 34.6656 41.4 34.5V29.1C41.4 28.9344 41.5344 28.8 41.7 28.8C41.8656 28.8 42 28.9344 42 29.1V34.5C42 34.6656 41.8656 34.8 41.7 34.8Z" fill="black"/>
<path d="M23.5738 29H25.5738C25.8571 29 26.0945 28.904 26.2858 28.712C26.4771 28.52 26.5731 28.2827 26.5738 28C26.5745 27.7173 26.4785 27.48 26.2858 27.288C26.0931 27.096 25.8558 27 25.5738 27H23.5738V25C23.5738 24.7167 23.4778 24.4793 23.2858 24.288C23.0938 24.0967 22.8565 24.0007 22.5738 24C22.2911 23.9993 22.0535 24.0953 21.8608 24.288C21.6681 24.4807 21.5725 24.718 21.5738 25V27H19.5738C19.2905 27 19.0528 27.096 18.8608 27.288C18.6688 27.48 18.5731 27.7173 18.5738 28C18.5745 28.2827 18.6705 28.5203 18.8618 28.713C19.0531 28.9057 19.2905 29.0013 19.5738 29H21.5738V31C21.5738 31.2833 21.6698 31.521 21.8618 31.713C22.0538 31.905 22.2911 32.0007 22.5738 32C22.8565 31.9993 23.0938 31.9033 23.2858 31.712C23.4778 31.5207 23.5738 31.2833 23.5738 31V29ZM32.5738 30C33.6738 30 34.6155 29.6083 35.3988 28.825C36.1821 28.0417 36.5738 27.1 36.5738 26C36.5738 24.9 36.1821 23.9583 35.3988 23.175C34.6155 22.3917 33.6738 22 32.5738 22C31.4738 22 30.5321 22.3917 29.7488 23.175C28.9655 23.9583 28.5738 24.9 28.5738 26C28.5738 27.1 28.9655 28.0417 29.7488 28.825C30.5321 29.6083 31.4738 30 32.5738 30ZM40.5738 36V35.2C40.5738 34.6333 40.4278 34.1127 40.1358 33.638C39.8438 33.1633 39.4565 32.8007 38.9738 32.55C37.9405 32.0333 36.8905 31.646 35.8238 31.388C34.7571 31.13 33.6738 31.0007 32.5738 31C31.4738 30.9993 30.3905 31.1287 29.3238 31.388C28.2571 31.6473 27.2071 32.0347 26.1738 32.55C25.6905 32.8 25.3028 33.1627 25.0108 33.638C24.7188 34.1133 24.5731 34.634 24.5738 35.2V36C24.5738 36.55 24.7695 37.021 25.1608 37.413C25.5521 37.805 26.0231 38.0007 26.5738 38H38.5738C39.1238 38 39.5945 37.8043 39.9858 37.413C40.3771 37.0217 40.5731 36.5507 40.5738 36Z" fill="white"/>
</svg>
