<svg width="356" height="192" viewBox="0 0 356 192" fill="none" xmlns="http://www.w3.org/2000/svg">
<g opacity="0.25" clip-path="url(#clip0_16_46)">
<rect width="356" height="192" fill="white"/>
<path d="M318.932 191.213H83.3895C79.8327 191.213 76.9422 188.321 76.9422 184.763V52.1838C76.9422 48.6258 79.8327 45.7343 83.3895 45.7343H318.932C322.489 45.7343 325.379 48.6258 325.379 52.1838V184.763C325.379 188.321 322.489 191.213 318.932 191.213ZM83.3895 49.9325C82.1462 49.9325 81.139 50.9401 81.139 52.1838V184.763C81.139 186.007 82.1462 187.015 83.3895 187.015H318.932C320.176 187.015 321.183 186.007 321.183 184.763V52.1838C321.183 50.9401 320.176 49.9325 318.932 49.9325H83.3895Z" fill="#D5D5D6"/>
<path d="M142.396 110.649H131.033V139.554H142.396V110.649Z" fill="black"/>
<path d="M160.809 107.873H149.446V139.554H160.809V107.873Z" fill="black"/>
<path d="M179.222 118.715H167.86V139.554H179.222V118.715Z" fill="black"/>
<path d="M197.636 112.281H186.273V139.554H197.636V112.281Z" fill="black"/>
<path d="M216.049 117.791H204.686V139.549H216.049V117.791Z" fill="black"/>
<path d="M234.462 101.555H223.099V139.554H234.462V101.555Z" fill="black"/>
<path d="M252.875 107.873H241.513V139.554H252.875V107.873Z" fill="black"/>
<path d="M271.289 102.368H259.926V139.554H271.289V102.368Z" fill="black"/>
<path d="M92.7692 64.1172H176.631C177.386 64.1172 178 64.7312 178 65.4869C178 66.2425 177.386 66.8565 176.631 66.8565H92.7692C92.0138 66.8565 91.4 66.2425 91.4 65.4869C91.4 64.7312 92.0138 64.1172 92.7692 64.1172Z" fill="#D5D5D6"/>
<path d="M70.1382 31.8434L80.4465 35.2335V20.3876H71.093L70.1382 31.8434Z" fill="#F3A3A6"/>
<path d="M79.1717 24.4966C84.8445 24.4966 89.4433 19.8962 89.4433 14.2214C89.4433 8.54665 84.8445 3.94632 79.1717 3.94632C73.4989 3.94632 68.9002 8.54665 68.9002 14.2214C68.9002 19.8962 73.4989 24.4966 79.1717 24.4966Z" fill="#F3A3A6"/>
<path d="M76.554 15.0244L77.9704 16.7456L80.5304 12.264C80.5304 12.264 83.7987 12.432 83.7987 10.0075C83.7987 7.58302 86.7993 7.5148 86.7993 7.5148C86.7993 7.5148 91.0433 0.0997074 82.2511 2.05188C82.2511 2.05188 76.1501 -2.13059 73.1179 1.44314C73.1179 1.44314 63.8169 6.12939 66.4766 14.2897L70.8989 22.6966L71.9009 20.7916C71.9009 20.7916 71.2923 12.7993 76.554 15.0244Z" fill="#2F2E43"/>
<path d="M75.6045 172.478H67.3054V184.254H75.6045V172.478Z" fill="#F3A3A6"/>
<path d="M74.6865 190.998C73.2648 191.129 66.167 191.685 65.8103 190.058C65.4851 188.563 65.9625 186.999 66.0307 186.789C66.7126 179.998 66.9644 179.92 67.1166 179.872C67.3579 179.804 68.0661 180.135 69.2097 180.875L69.2831 180.922L69.2989 181.006C69.3199 181.111 69.8287 183.604 72.2314 183.226C73.8786 182.963 74.4137 182.601 74.5868 182.423C74.4451 182.36 74.272 182.25 74.1514 182.055C73.973 181.777 73.9415 181.42 74.0569 180.995C74.3665 179.867 75.295 178.198 75.3317 178.13L75.4366 177.941L84.8688 184.307L90.6918 185.97C91.1325 186.096 91.484 186.411 91.6623 186.831C91.9089 187.419 91.7567 188.101 91.2846 188.526C90.2249 189.476 88.1266 191.108 85.918 191.307C85.3305 191.36 84.5541 191.381 83.6832 191.381C80.0373 191.381 74.7232 191.003 74.6812 190.998H74.6865Z" fill="#2F2E43"/>
<path d="M49.7129 154.799L42.2092 163.873L48.6037 169.165L56.1074 160.091L49.7129 154.799Z" fill="#F3A3A6"/>
<path d="M43.6095 173.78C42.4344 172.972 36.6062 168.878 37.3668 167.398C38.0698 166.039 39.4337 165.142 39.6226 165.021C44.4751 160.225 44.7216 160.324 44.8685 160.387C45.0993 160.487 45.4298 161.196 45.8443 162.492L45.8705 162.571L45.8285 162.644C45.7761 162.738 44.58 164.985 46.6731 166.223C48.1105 167.073 48.7558 167.131 48.9971 167.105C48.9289 166.968 48.8659 166.769 48.8922 166.543C48.9289 166.218 49.1335 165.919 49.5007 165.667C50.4607 164.995 52.2338 164.302 52.3125 164.271L52.5119 164.192L55.7224 175.113L59.148 180.109C59.405 180.486 59.4785 180.953 59.3473 181.394C59.1637 182.003 58.6129 182.433 57.9729 182.46C56.5512 182.517 53.8968 182.433 52.066 181.179C51.5833 180.849 50.9696 180.371 50.2981 179.815C47.4915 177.49 43.6357 173.811 43.6043 173.78H43.6095Z" fill="#2F2E43"/>
<path d="M89.3279 81.6447H60.8634L67.19 175.769H76.6799L89.3331 81.6447H89.3279Z" fill="#2F2E43"/>
<path d="M83.5311 86.8295L89.3279 81.6447L86.4269 133.414L54.0122 164.26L45.9282 157.58L64.8188 133.062L83.5311 86.8295Z" fill="#2F2E43"/>
<path d="M83.5311 26.2808L69.472 23.998L65.1074 31.6335C59.5572 41.3419 57.2962 52.5826 58.6549 63.6816L60.8634 81.6552H89.3279L83.5311 26.2861V26.2808Z" fill="black"/>
<path d="M72.1159 98.595C72.6982 101.497 71.6123 104.147 69.6976 104.515C67.7776 104.877 65.7526 102.819 65.1703 99.9122C64.9238 98.7525 64.9657 97.556 65.2962 96.4172L62.988 84.0797L69.0208 83.1404L70.6523 95.4044C71.3972 96.3437 71.9009 97.4353 72.1159 98.6003V98.595Z" fill="#F3A3A6"/>
<path d="M64.7769 95.2522L55.9165 67.8694V67.8274L59.2634 39.6311C59.7775 35.3122 63.4392 32.0586 67.7828 32.0586C70.4425 32.0586 72.9081 33.2603 74.5448 35.3594C76.1815 37.4585 76.7534 40.1402 76.1081 42.7273L70.1959 66.379L71.6071 93.2213L64.7716 95.2522H64.7769Z" fill="black"/>
</g>
<defs>
<clipPath id="clip0_16_46">
<rect width="356" height="192" fill="white"/>
</clipPath>
</defs>
</svg>
