<svg width="60" height="60" viewBox="0 0 60 60" fill="none" xmlns="http://www.w3.org/2000/svg">
<path d="M7.8 18.6C8.46274 18.6 9 18.0627 9 17.4C9 16.7373 8.46274 16.2 7.8 16.2C7.13726 16.2 6.6 16.7373 6.6 17.4C6.6 18.0627 7.13726 18.6 7.8 18.6Z" fill="black"/>
<path d="M46.2 8.4C46.5314 8.4 46.8 8.13137 46.8 7.8C46.8 7.46863 46.5314 7.2 46.2 7.2C45.8686 7.2 45.6 7.46863 45.6 7.8C45.6 8.13137 45.8686 8.4 46.2 8.4Z" fill="#101010"/>
<path d="M30 52.2C42.2607 52.2 52.2 42.2607 52.2 30C52.2 17.7393 42.2607 7.8 30 7.8C17.7393 7.8 7.8 17.7393 7.8 30C7.8 42.2607 17.7393 52.2 30 52.2Z" fill="black"/>
<path d="M49.8 11.4C51.1255 11.4 52.2 10.3255 52.2 9C52.2 7.67451 51.1255 6.6 49.8 6.6C48.4745 6.6 47.4 7.67451 47.4 9C47.4 10.3255 48.4745 11.4 49.8 11.4Z" fill="#101010"/>
<path d="M52.2 15.6C52.8627 15.6 53.4 15.0627 53.4 14.4C53.4 13.7373 52.8627 13.2 52.2 13.2C51.5373 13.2 51 13.7373 51 14.4C51 15.0627 51.5373 15.6 52.2 15.6Z" fill="black"/>
<path d="M48.6 46.8C49.2627 46.8 49.8 46.2627 49.8 45.6C49.8 44.9373 49.2627 44.4 48.6 44.4C47.9373 44.4 47.4 44.9373 47.4 45.6C47.4 46.2627 47.9373 46.8 48.6 46.8Z" fill="#171717"/>
<path d="M9 40.2C10.3255 40.2 11.4 39.1255 11.4 37.8C11.4 36.4745 10.3255 35.4 9 35.4C7.67451 35.4 6.6 36.4745 6.6 37.8C6.6 39.1255 7.67451 40.2 9 40.2Z" fill="#171717"/>
<path d="M15 53.4C15.6627 53.4 16.2 52.8627 16.2 52.2C16.2 51.5373 15.6627 51 15 51C14.3373 51 13.8 51.5373 13.8 52.2C13.8 52.8627 14.3373 53.4 15 53.4Z" fill="black"/>
<path d="M11.1 33.6C11.9284 33.6 12.6 32.9284 12.6 32.1C12.6 31.2716 11.9284 30.6 11.1 30.6C10.2716 30.6 9.6 31.2716 9.6 32.1C9.6 32.9284 10.2716 33.6 11.1 33.6Z" fill="white"/>
<path d="M12.6 40.8C12.9314 40.8 13.2 40.5314 13.2 40.2C13.2 39.8686 12.9314 39.6 12.6 39.6C12.2686 39.6 12 39.8686 12 40.2C12 40.5314 12.2686 40.8 12.6 40.8Z" fill="#101010"/>
<path d="M48 21C48.3314 21 48.6 20.7314 48.6 20.4C48.6 20.0686 48.3314 19.8 48 19.8C47.6686 19.8 47.4 20.0686 47.4 20.4C47.4 20.7314 47.6686 21 48 21Z" fill="white"/>
<path d="M16.803 39.0006L16.8006 21.0006C16.8006 18.681 18.681 16.8 21.0006 16.8H39C41.3196 16.8 43.2 18.6804 43.2 21V39C43.2 41.3196 41.3196 43.2 39 43.2H21.003C18.6834 43.2 16.803 41.3202 16.803 39.0006Z" fill="black"/>
<path d="M39 17.04C41.1834 17.04 42.96 18.8166 42.96 21V39C42.96 41.1834 41.1834 42.96 39 42.96H21C18.8166 42.96 17.04 41.1834 17.04 39V21C17.04 18.8166 18.8166 17.04 21 17.04H39ZM39 16.2H21C18.3492 16.2 16.2 18.3492 16.2 21V39C16.2 41.6508 18.3492 43.8 21 43.8H39C41.6508 43.8 43.8 41.6508 43.8 39V21C43.8 18.3492 41.6508 16.2 39 16.2Z" fill="black"/>
<path d="M36.9 36H23.1C21.942 36 21 35.058 21 33.9V26.1C21 24.942 21.942 24 23.1 24H36.9C38.058 24 39 24.942 39 26.1V33.9C39 35.058 38.058 36 36.9 36ZM23.1 24.6C22.2732 24.6 21.6 25.2732 21.6 26.1V33.9C21.6 34.7268 22.2732 35.4 23.1 35.4H36.9C37.7268 35.4 38.4 34.7268 38.4 33.9V26.1C38.4 25.2732 37.7268 24.6 36.9 24.6H23.1Z" fill="black"/>
<path d="M21.9 35.4C21.8232 35.4 21.7464 35.3706 21.6876 35.3124C21.5706 35.1954 21.5706 35.0052 21.6876 34.8882L26.7876 29.7882C26.9046 29.6712 27.0948 29.6712 27.2118 29.7882C27.3288 29.9052 27.3288 30.0954 27.2118 30.2124L22.1118 35.3124C22.0536 35.3706 21.9768 35.4 21.9 35.4Z" fill="black"/>
<path d="M38.1 35.4C38.0232 35.4 37.9464 35.3706 37.8876 35.3124L32.7876 30.2124C32.6706 30.0954 32.6706 29.9052 32.7876 29.7882C32.9046 29.6712 33.0948 29.6712 33.2118 29.7882L38.3118 34.8882C38.4288 35.0052 38.4288 35.1954 38.3118 35.3124C38.2536 35.3706 38.1768 35.4 38.1 35.4Z" fill="black"/>
<path d="M41.7 25.2C41.5344 25.2 41.4 25.0656 41.4 24.9V21.3C41.4 19.8114 40.1886 18.6 38.7 18.6H30.9C30.7344 18.6 30.6 18.4656 30.6 18.3C30.6 18.1344 30.7344 18 30.9 18H38.7C40.5198 18 42 19.4802 42 21.3V24.9C42 25.0656 41.8656 25.2 41.7 25.2Z" fill="black"/>
<path d="M29.1 18.6H27.3C27.1344 18.6 27 18.4656 27 18.3C27 18.1344 27.1344 18 27.3 18H29.1C29.2656 18 29.4 18.1344 29.4 18.3C29.4 18.4656 29.2656 18.6 29.1 18.6Z" fill="black"/>
<path d="M38.7 42H21.3C19.4802 42 18 40.5198 18 38.7V21.3C18 19.4802 19.4802 18 21.3 18H25.5C25.6656 18 25.8 18.1344 25.8 18.3C25.8 18.4656 25.6656 18.6 25.5 18.6H21.3C19.8114 18.6 18.6 19.8114 18.6 21.3V38.7C18.6 40.1886 19.8114 41.4 21.3 41.4H38.7C40.1886 41.4 41.4 40.1886 41.4 38.7V36.3C41.4 36.1344 41.5344 36 41.7 36C41.8656 36 42 36.1344 42 36.3V38.7C42 40.5198 40.5198 42 38.7 42Z" fill="black"/>
<path d="M41.7 34.8C41.5344 34.8 41.4 34.6656 41.4 34.5V29.1C41.4 28.9344 41.5344 28.8 41.7 28.8C41.8656 28.8 42 28.9344 42 29.1V34.5C42 34.6656 41.8656 34.8 41.7 34.8Z" fill="black"/>
<path d="M30 29.8421C31.618 29.8421 32.9371 28.4005 32.9371 26.6465C32.9371 24.9124 31.625 23.539 30 23.539C28.3889 23.539 27.0629 24.9328 27.0629 26.6599C27.0694 28.4075 28.3885 29.8421 30 29.8421ZM22.1675 29.9912C23.5678 29.9912 24.7169 28.733 24.7169 27.1897C24.7169 25.6808 23.5817 24.4634 22.1675 24.4634C20.7667 24.4634 19.6107 25.7007 19.6176 27.2031C19.6246 28.7399 20.7667 29.9912 22.1675 29.9912ZM37.8395 29.9912C39.2332 29.9912 40.3824 28.7399 40.3824 27.2031C40.3893 25.7007 39.2332 24.4634 37.8395 24.4634C36.4187 24.4634 35.2831 25.6803 35.2831 27.1897C35.2831 28.733 36.4322 29.9912 37.8395 29.9912ZM30 28.8151C29.0074 28.8151 28.1572 27.8634 28.1572 26.6599C28.1572 25.4769 28.9939 24.566 30.0005 24.566C31.0131 24.566 31.8427 25.4635 31.8427 26.646C31.8427 27.8499 31.0061 28.8151 30 28.8151ZM22.1675 28.9786C21.3378 28.9786 20.6307 28.1828 20.6307 27.2036C20.6307 26.2453 21.3309 25.4765 22.1675 25.4765C23.0241 25.4765 23.7108 26.2314 23.7108 27.1901C23.7108 28.1828 23.0037 28.9786 22.1675 28.9786ZM37.8395 28.9786C36.9963 28.9786 36.2892 28.1828 36.2892 27.1901C36.2892 26.2314 36.9759 25.4769 37.8395 25.4769C38.6756 25.4769 39.3693 26.2453 39.3693 27.2041C39.3693 28.1828 38.6687 28.9786 37.8395 28.9786ZM18.3868 36.2261H23.7242C23.3979 36.0427 23.1462 35.6346 23.194 35.22H18.2169C18.0809 35.22 18.0131 35.1656 18.0131 35.0366C18.0131 33.3503 19.9371 31.7726 22.1605 31.7726C23.0171 31.7726 23.7855 31.9769 24.4448 32.3641C24.6635 32.0869 24.9225 31.844 25.2132 31.6436C24.3362 31.0655 23.2822 30.7665 22.1605 30.7665C19.3117 30.7665 17 32.8335 17 35.0979C17 35.8523 17.4624 36.2261 18.3868 36.2261ZM41.6197 36.2261C42.5376 36.2261 43 35.8523 43 35.0979C43 32.8335 40.6879 30.7665 37.8395 30.7665C36.7177 30.7665 35.6703 31.0655 34.7868 31.644C35.0928 31.8544 35.3439 32.0925 35.5621 32.3641C36.2145 31.9769 36.9894 31.7726 37.8395 31.7726C40.0629 31.7726 41.9869 33.3503 41.9869 35.0366C41.9869 35.1656 41.9256 35.22 41.7896 35.22H36.8125C36.8533 35.6346 36.6086 36.0427 36.2822 36.2261H41.6197ZM25.73 36.2261H34.27C35.3982 36.2261 35.9359 35.8862 35.9359 35.1383C35.9359 33.3568 33.685 30.78 30 30.78C26.308 30.78 24.0571 33.3568 24.0571 35.1383C24.0571 35.8862 24.5948 36.2261 25.73 36.2261ZM25.4036 35.2C25.2271 35.2 25.1524 35.1522 25.1524 35.0096C25.1524 33.894 26.8795 31.807 30 31.807C33.114 31.807 34.8411 33.894 34.8411 35.0092C34.8411 35.1522 34.7729 35.1995 34.5964 35.1995L25.4036 35.2Z" fill="white"/>
</svg>
