<svg width="60" height="60" viewBox="0 0 60 60" fill="none" xmlns="http://www.w3.org/2000/svg">
<g id="Mail Icon">
<g id="Group">
<g id="Group_2">
<path id="Vector" d="M7.8 18.6C8.46274 18.6 9 18.0628 9 17.4C9 16.7373 8.46274 16.2 7.8 16.2C7.13726 16.2 6.6 16.7373 6.6 17.4C6.6 18.0628 7.13726 18.6 7.8 18.6Z" fill="black"/>
<path id="Vector_2" d="M46.2 8.40001C46.5314 8.40001 46.8 8.13138 46.8 7.80001C46.8 7.46864 46.5314 7.20001 46.2 7.20001C45.8686 7.20001 45.6 7.46864 45.6 7.80001C45.6 8.13138 45.8686 8.40001 46.2 8.40001Z" fill="#101010"/>
<path id="Vector_3" d="M30 52.2C42.2607 52.2 52.2 42.2607 52.2 30C52.2 17.7393 42.2607 7.8 30 7.8C17.7393 7.8 7.8 17.7393 7.8 30C7.8 42.2607 17.7393 52.2 30 52.2Z" fill="black"/>
<path id="Vector_4" d="M49.8 11.4C51.1255 11.4 52.2 10.3255 52.2 9.00001C52.2 7.67452 51.1255 6.60001 49.8 6.60001C48.4745 6.60001 47.4 7.67452 47.4 9.00001C47.4 10.3255 48.4745 11.4 49.8 11.4Z" fill="#101010"/>
<path id="Vector_5" d="M52.2 15.6C52.8627 15.6 53.4 15.0628 53.4 14.4C53.4 13.7373 52.8627 13.2 52.2 13.2C51.5373 13.2 51 13.7373 51 14.4C51 15.0628 51.5373 15.6 52.2 15.6Z" fill="black"/>
<path id="Vector_6" d="M48.6 46.8C49.2627 46.8 49.8 46.2628 49.8 45.6C49.8 44.9373 49.2627 44.4 48.6 44.4C47.9373 44.4 47.4 44.9373 47.4 45.6C47.4 46.2628 47.9373 46.8 48.6 46.8Z" fill="#171717"/>
<path id="Vector_7" d="M9 40.2C10.3255 40.2 11.4 39.1255 11.4 37.8C11.4 36.4745 10.3255 35.4 9 35.4C7.67452 35.4 6.6 36.4745 6.6 37.8C6.6 39.1255 7.67452 40.2 9 40.2Z" fill="#171717"/>
<path id="Vector_8" d="M15 53.4C15.6627 53.4 16.2 52.8627 16.2 52.2C16.2 51.5373 15.6627 51 15 51C14.3373 51 13.8 51.5373 13.8 52.2C13.8 52.8627 14.3373 53.4 15 53.4Z" fill="black"/>
<path id="Vector_9" d="M11.1 33.6C11.9284 33.6 12.6 32.9284 12.6 32.1C12.6 31.2716 11.9284 30.6 11.1 30.6C10.2716 30.6 9.6 31.2716 9.6 32.1C9.6 32.9284 10.2716 33.6 11.1 33.6Z" fill="white"/>
<path id="Vector_10" d="M12.6 40.8C12.9314 40.8 13.2 40.5314 13.2 40.2C13.2 39.8686 12.9314 39.6 12.6 39.6C12.2686 39.6 12 39.8686 12 40.2C12 40.5314 12.2686 40.8 12.6 40.8Z" fill="#101010"/>
<path id="Vector_11" d="M48 21C48.3314 21 48.6 20.7314 48.6 20.4C48.6 20.0686 48.3314 19.8 48 19.8C47.6686 19.8 47.4 20.0686 47.4 20.4C47.4 20.7314 47.6686 21 48 21Z" fill="white"/>
<path id="Vector_12" d="M16.803 39.0006L16.8006 21.0006C16.8006 18.681 18.681 16.8 21.0006 16.8H39C41.3196 16.8 43.2 18.6804 43.2 21V39C43.2 41.3196 41.3196 43.2 39 43.2H21.003C18.6834 43.2 16.803 41.3202 16.803 39.0006Z" fill="black"/>
<path id="Vector_13" d="M39 17.04C41.1834 17.04 42.96 18.8166 42.96 21V39C42.96 41.1834 41.1834 42.96 39 42.96H21C18.8166 42.96 17.04 41.1834 17.04 39V21C17.04 18.8166 18.8166 17.04 21 17.04H39ZM39 16.2H21C18.3492 16.2 16.2 18.3492 16.2 21V39C16.2 41.6508 18.3492 43.8 21 43.8H39C41.6508 43.8 43.8 41.6508 43.8 39V21C43.8 18.3492 41.6508 16.2 39 16.2Z" fill="black"/>
<path id="Vector_14" d="M36.9 36H23.1C21.942 36 21 35.058 21 33.9V26.1C21 24.942 21.942 24 23.1 24H36.9C38.058 24 39 24.942 39 26.1V33.9C39 35.058 38.058 36 36.9 36ZM23.1 24.6C22.2732 24.6 21.6 25.2732 21.6 26.1V33.9C21.6 34.7268 22.2732 35.4 23.1 35.4H36.9C37.7268 35.4 38.4 34.7268 38.4 33.9V26.1C38.4 25.2732 37.7268 24.6 36.9 24.6H23.1Z" fill="black"/>
<path id="Vector_15" d="M30 32.379C29.3544 32.379 28.7094 32.1336 28.218 31.6422L21.6876 25.1124C21.5706 24.9954 21.5706 24.8052 21.6876 24.6882C21.8046 24.5712 21.9948 24.5712 22.1118 24.6882L28.6422 31.218C29.391 31.9662 30.6084 31.9662 31.3572 31.218L37.8876 24.6876C38.0046 24.5706 38.1948 24.5706 38.3118 24.6876C38.4288 24.8046 38.4288 24.9948 38.3118 25.1118L31.782 31.6422C31.2906 32.1336 30.6456 32.379 30 32.379Z" fill="black"/>
<path id="Vector_16" d="M21.9 35.4C21.8232 35.4 21.7464 35.3706 21.6876 35.3124C21.5706 35.1954 21.5706 35.0052 21.6876 34.8882L26.7876 29.7882C26.9046 29.6712 27.0948 29.6712 27.2118 29.7882C27.3288 29.9052 27.3288 30.0954 27.2118 30.2124L22.1118 35.3124C22.0536 35.3706 21.9768 35.4 21.9 35.4Z" fill="black"/>
<path id="Vector_17" d="M38.1 35.4C38.0232 35.4 37.9464 35.3706 37.8876 35.3124L32.7876 30.2124C32.6706 30.0954 32.6706 29.9052 32.7876 29.7882C32.9046 29.6712 33.0948 29.6712 33.2118 29.7882L38.3118 34.8882C38.4288 35.0052 38.4288 35.1954 38.3118 35.3124C38.2536 35.3706 38.1768 35.4 38.1 35.4Z" fill="black"/>
<path id="Vector_18" d="M41.7 25.2C41.5344 25.2 41.4 25.0656 41.4 24.9V21.3C41.4 19.8114 40.1886 18.6 38.7 18.6H30.9C30.7344 18.6 30.6 18.4656 30.6 18.3C30.6 18.1344 30.7344 18 30.9 18H38.7C40.5198 18 42 19.4802 42 21.3V24.9C42 25.0656 41.8656 25.2 41.7 25.2Z" fill="black"/>
<path id="Vector_19" d="M29.1 18.6H27.3C27.1344 18.6 27 18.4656 27 18.3C27 18.1344 27.1344 18 27.3 18H29.1C29.2656 18 29.4 18.1344 29.4 18.3C29.4 18.4656 29.2656 18.6 29.1 18.6Z" fill="black"/>
<path id="Vector_20" d="M38.7 42H21.3C19.4802 42 18 40.5198 18 38.7V21.3C18 19.4802 19.4802 18 21.3 18H25.5C25.6656 18 25.8 18.1344 25.8 18.3C25.8 18.4656 25.6656 18.6 25.5 18.6H21.3C19.8114 18.6 18.6 19.8114 18.6 21.3V38.7C18.6 40.1886 19.8114 41.4 21.3 41.4H38.7C40.1886 41.4 41.4 40.1886 41.4 38.7V36.3C41.4 36.1344 41.5344 36 41.7 36C41.8656 36 42 36.1344 42 36.3V38.7C42 40.5198 40.5198 42 38.7 42Z" fill="black"/>
<path id="Vector_21" d="M41.7 34.8C41.5344 34.8 41.4 34.6656 41.4 34.5V29.1C41.4 28.9344 41.5344 28.8 41.7 28.8C41.8656 28.8 42 28.9344 42 29.1V34.5C42 34.6656 41.8656 34.8 41.7 34.8Z" fill="black"/>
<g id="Group_3">
<g id="Group_4">
<path id="Vector_22" d="M29.8983 18.0006C26.322 17.9579 23.1861 20.3872 22.0725 23.7856C20.8945 27.3802 22.7114 30.2204 24.0925 32.3789C24.686 33.3065 25.2179 34.1373 25.4325 34.8639C25.5417 35.2338 25.8685 35.4939 26.2542 35.4939H26.8133C26.8133 34.2561 26.0523 33.0666 25.1708 31.6889C24.1404 30.0791 22.9733 28.2546 22.9733 26.1072C22.9733 22.3739 25.9853 19.3309 29.7075 19.2806C32.6413 19.2417 35.1744 21.1646 36.2125 23.9089C37.3995 27.047 35.7941 29.556 34.4292 31.6889C33.5477 33.0666 32.7867 34.2561 32.7867 35.4939H33.3458C33.7315 35.4939 34.0583 35.2334 34.1675 34.8639C34.3825 34.1373 34.914 33.3073 35.5075 32.3797C36.5767 30.7089 37.9067 28.6293 37.9067 26.1072C37.9067 21.6699 34.3229 18.0539 29.8983 18.0006ZM19.8392 18.6614L19.0525 19.6714L20.9875 21.1797L21.7742 20.1697L19.8392 18.6614ZM39.7617 18.6631L37.8258 20.1706L38.6125 21.1806L40.5483 19.6722L39.7617 18.6631ZM17 25.6806V26.9606H19.1333V25.6806H17ZM40.4667 25.6806V26.9606H42.6V25.6806H40.4667ZM27.5825 26.4297L27.4308 26.5156C26.9018 26.8168 26.6775 27.4576 26.8925 28.0272C27.3734 29.3008 28.0933 31.8199 28.0933 35.4939H29.3733C29.3733 29.6315 27.6555 26.5581 27.5825 26.4297ZM32.0175 26.4297C31.9445 26.5577 30.2267 29.6315 30.2267 35.4939H31.5067C31.5067 31.8194 32.2262 29.3 32.7067 28.0272C32.9217 27.4585 32.6986 26.8189 32.1708 26.5172L32.0175 26.4297ZM38.6125 31.0347L37.8258 32.0447L39.7608 33.5531L40.5475 32.5431L38.6125 31.0347ZM20.9867 31.0356L19.0517 32.5439L19.8383 33.5531L21.7733 32.0456L20.9867 31.0356ZM25.96 36.7739L26.22 38.5922C26.3203 39.2954 26.8458 39.8624 27.5392 40.0164L28.1425 40.1506C28.3194 40.9044 28.9922 41.4672 29.8 41.4672C30.6078 41.4672 31.2806 40.9044 31.4575 40.1506L32.0608 40.0164C32.7542 39.8624 33.2797 39.2954 33.38 38.5922L33.64 36.7739H30.2267H29.3733H25.96Z" fill="white"/>
</g>
</g>
</g>
</g>
</g>
</svg>
